<?xml version="1.0" standalone="no"?><!DOCTYPE svg PUBLIC "-//W3C//DTD SVG 1.1//EN" "http://www.w3.org/Graphics/SVG/1.1/DTD/svg11.dtd"><svg t="1773888478395" class="icon" viewBox="0 0 1024 1024" version="1.1" xmlns="http://www.w3.org/2000/svg" p-id="1909" xmlns:xlink="http://www.w3.org/1999/xlink" width="200" height="200"><path d="M716.8 829.44H307.2a76.8 76.8 0 0 1-76.8-76.8v-409.6A76.8 76.8 0 0 1 307.2 266.24h176.64a25.6 25.6 0 0 1 25.6 25.6 25.6 25.6 0 0 1-25.6 25.6H307.2a25.6 25.6 0 0 0-25.6 25.6v409.6a25.6 25.6 0 0 0 25.6 25.6h409.6a25.6 25.6 0 0 0 25.6-25.6v-186.368a25.6 25.6 0 0 1 51.2 0v186.368a76.8 76.8 0 0 1-76.8 76.8z" fill="#666666" p-id="1910"></path><path d="M774.656 279.552a25.6 25.6 0 0 1 0 36.352l-289.792 289.792a25.6 25.6 0 0 1-35.84 0 25.6 25.6 0 0 1 0-36.352l289.28-289.792a26.112 26.112 0 0 1 36.352 0z" fill="#666666" p-id="1911"></path></svg>