<?xml version="1.0" standalone="no"?><!DOCTYPE svg PUBLIC "-//W3C//DTD SVG 1.1//EN" "http://www.w3.org/Graphics/SVG/1.1/DTD/svg11.dtd"><svg t="1713523200000" class="icon" viewBox="0 0 1024 1024" version="1.1" xmlns="http://www.w3.org/2000/svg" width="200" height="200"><path d="M768 128H256a76.8 76.8 0 0 0-76.8 76.8v409.6A76.8 76.8 0 0 0 256 691.2h76.8v102.4l153.6-102.4h281.6a76.8 76.8 0 0 0 76.8-76.8V204.8A76.8 76.8 0 0 0 768 128z" fill="#666666" p-id="1910"></path><path d="M384 384m-76.8 0a76.8 76.8 0 1 0 153.6 0 76.8 76.8 0 1 0-153.6 0Z" fill="#666666" p-id="1911"></path><path d="M512 384m-76.8 0a76.8 76.8 0 1 0 153.6 0 76.8 76.8 0 1 0-153.6 0Z" fill="#666666" p-id="1912"></path><path d="M640 384m-76.8 0a76.8 76.8 0 1 0 153.6 0 76.8 76.8 0 1 0-153.6 0Z" fill="#666666" p-id="1913"></path></svg>